<svg width="518" height="208" viewBox="0 0 518 208" fill="none" xmlns="http://www.w3.org/2000/svg">
<path fill-rule="evenodd" clip-rule="evenodd" d="M382.131 65.5187C385.474 65.5421 388.502 65.3066 388.859 64.9879C390.266 63.7351 389.072 62.7066 386.877 63.2803C385.599 63.6202 383.085 63.8556 381.286 63.8078C379.489 63.7595 377.577 64.1152 377.036 64.5945C376.43 65.133 378.395 65.4873 382.131 65.5187Z" fill="#FFCD00"/>
<path fill-rule="evenodd" clip-rule="evenodd" d="M246.745 86.156C246.828 86.629 248.436 86.7425 250.32 86.4103C252.204 86.0781 253.682 85.4205 253.599 84.9475C253.516 84.4772 251.902 84.3646 250.018 84.6968C248.134 85.029 246.662 85.6857 246.745 86.156Z" fill="#FFCD00"/>
<path fill-rule="evenodd" clip-rule="evenodd" d="M333.886 81.0714C333.228 82.0108 334.411 83.0654 335.84 82.8134C336.522 82.6931 336.973 82.0167 336.849 81.3086C336.621 80.0164 334.732 79.8671 333.886 81.0714Z" fill="#FFCD00"/>
<path fill-rule="evenodd" clip-rule="evenodd" d="M423.93 57.1595C428.87 55.7075 431.048 54.3375 429.418 53.6923C428.983 53.5238 425.589 53.6346 421.878 53.9399C414.817 54.5187 413.901 55.2 417.139 57.4722C418.526 58.4429 419.756 58.3804 423.93 57.1595Z" fill="#FFCD00"/>
<path fill-rule="evenodd" clip-rule="evenodd" d="M326.924 82.6157C327.299 83.0345 328.137 83.2864 328.788 83.1716C329.437 83.0572 330.141 82.5333 330.35 82.0114C330.564 81.4701 329.762 81.2304 328.486 81.4555C327.206 81.6811 326.538 82.1801 326.924 82.6157Z" fill="#FFCD00"/>
<path fill-rule="evenodd" clip-rule="evenodd" d="M267.217 80.6625C266.506 81.2409 264.824 81.5561 263.298 81.3961C261.194 81.1729 260.157 81.593 258.426 83.3531C255.049 86.7786 257.078 87.1055 265.946 84.5665C270.308 83.3098 274.822 82.1167 275.975 81.9001C277.475 81.625 277.762 81.3026 276.984 80.7577C275.292 79.569 268.63 79.5046 267.217 80.6625Z" fill="#FFCD00"/>
<path fill-rule="evenodd" clip-rule="evenodd" d="M362.368 65.7684C362.451 66.2414 363.483 66.4565 364.662 66.2487C365.838 66.0413 366.734 65.4863 366.65 65.0133C366.567 64.543 365.536 64.3279 364.36 64.5352C363.181 64.743 362.285 65.2981 362.368 65.7684Z" fill="#FFCD00"/>
<path fill-rule="evenodd" clip-rule="evenodd" d="M409.585 64.7733C413.008 64.4495 417.353 64.3069 419.245 64.4583C426.407 65.0396 436.16 65.1931 440.136 64.7877C442.41 64.5654 444.812 64.6615 445.476 65.0107C446.139 65.3549 447.399 65.7615 448.276 65.9134C449.151 66.0575 449.98 66.8146 450.116 67.5822C450.298 68.6134 450.732 68.734 451.742 68.0389C454.368 66.2195 458.444 66.1829 464.605 67.9187C468.007 68.8803 470.859 70.0375 470.94 70.4949C471.021 70.9523 471.663 71.2255 472.371 71.1006C473.077 70.9762 473.554 70.2952 473.429 69.5871C473.143 67.9667 474.072 67.7923 476.471 69.024C477.534 69.5667 477.891 70.0819 477.289 70.2041C476.703 70.3209 476.334 71.0414 476.467 71.7986C476.663 72.9099 476.113 73.1748 473.684 73.1502C469.201 73.0986 469.337 74.7347 474.004 77.003C478.424 79.1494 481.865 78.8651 480.995 76.4231C480.233 74.2631 483.198 74.0946 486.582 76.1014C490.046 78.1554 491.695 78.0191 491.288 75.7112C491.122 74.7679 490.602 74.0683 490.131 74.1512C489.658 74.2346 489.205 73.9148 489.121 73.4367C488.97 72.5813 489.242 72.6292 494.736 74.3306C495.857 74.6765 497.958 75.0869 499.404 75.2343C501.59 75.467 502.057 75.2301 502.173 73.8186C502.29 72.3618 502.633 72.208 504.595 72.7121C506.418 73.1847 507.001 73.026 507.449 71.9264C508.258 69.9557 507.69 67.5376 506.357 67.2744C505.727 67.1457 504.894 65.659 504.501 63.9563C503.542 59.8006 501.468 58.3355 499.299 60.2956C498.008 61.4532 497.451 61.562 496.423 60.8373C495.39 60.1187 495.347 59.7666 496.19 59.0158C497.394 57.9427 496.281 56.2843 494.56 56.5878C493.921 56.7003 493.332 57.2413 493.249 57.7861C493.08 58.9405 484.126 57.9852 481.695 56.5484C480.862 56.0666 479.362 56.0405 478.361 56.4969C476.973 57.1334 476.604 57.0091 476.806 55.9636C477.127 54.3189 472.079 53.9059 467.099 55.1624C465.337 55.6143 463.363 55.6958 462.717 55.3567C462.069 55.0181 459.523 54.5769 457.061 54.3795C454.596 54.1826 452.154 53.7551 451.637 53.4333C451.118 53.109 449.569 53.0437 448.192 53.2866C446.065 53.6616 445.882 53.8912 446.981 54.8244C447.693 55.4265 448.989 55.7949 449.862 55.6409C450.738 55.4864 452.249 56.2087 453.226 57.2488C455.27 59.4252 458.778 59.8406 467.992 59.0021C471.556 58.68 474.732 58.661 475.052 58.9643C476.199 60.0732 480.852 60.7742 483.698 60.2724C485.297 59.9904 486.918 60.1124 487.303 60.5428C487.685 60.9737 488.628 61.1085 489.394 60.8403C490.312 60.5158 491.006 61.0197 491.43 62.3226C492.458 65.4802 491.174 66.189 486.706 64.925C484.26 64.2317 480.311 64.022 476.949 64.4043C469.016 65.3127 461.885 64.9793 459.568 63.5971C458.314 62.8482 455.622 62.6327 452.176 63.0033C448.564 63.3897 446.313 63.1843 445.444 62.3943C444.673 61.6987 442.339 61.3509 439.782 61.5539C437.384 61.7503 431.073 62.005 425.747 62.1154C420.426 62.2356 415.016 62.5366 413.724 62.783C412.14 63.0891 411.3 62.8002 411.14 61.8931C410.953 60.8309 410.325 60.763 408.209 61.565C404.888 62.8301 402.465 63.7292 401.372 64.1031C399.083 64.893 404.094 65.3046 409.585 64.7733Z" fill="#FFCD00"/>
<path fill-rule="evenodd" clip-rule="evenodd" d="M446.993 61.1485C447.624 61.2797 448.588 61.1098 449.136 60.7707C449.683 60.4264 449.165 60.3178 447.987 60.5256C446.811 60.733 446.364 61.0116 446.993 61.1485Z" fill="#FFCD00"/>
<path fill-rule="evenodd" clip-rule="evenodd" d="M350.576 58.569C355.929 56.8443 355.96 54.5444 350.617 55.4652C347.891 55.9352 347.258 55.8203 348.106 55.0047C348.919 54.2244 347.796 54.2146 344.125 54.9631C340.959 55.612 338.525 56.6034 337.742 57.5703C337.04 58.4268 336.52 59.4085 336.581 59.7522C336.763 60.7834 346.162 59.9842 350.576 58.569Z" fill="#FFCD00"/>
<path fill-rule="evenodd" clip-rule="evenodd" d="M361.62 57.3434C365.33 58.2509 367.874 58.098 369.987 56.8274C372.216 55.4884 370.137 54.6826 366.224 55.3725C364.131 55.7416 362.352 55.6608 362.269 55.1853C362.186 54.7175 361.152 54.5029 359.976 54.7102C356.874 55.2571 357.553 56.3392 361.62 57.3434Z" fill="#FFCD00"/>
<path fill-rule="evenodd" clip-rule="evenodd" d="M332.064 59.1898C331.645 59.5674 331.335 60.0432 331.371 60.2499C331.408 60.4593 331.82 60.5598 332.291 60.4769C332.764 60.3935 333.077 59.9172 332.989 59.4185C332.901 58.9222 332.485 58.8144 332.064 59.1898Z" fill="#FFCD00"/>
<path fill-rule="evenodd" clip-rule="evenodd" d="M408.383 56.8233C410.101 55.4757 410.414 53.2435 408.718 54.4325C408.177 54.8104 407.076 55.4869 406.276 55.937C405.345 56.4583 405.166 57.0015 405.783 57.431C406.399 57.8605 407.339 57.6442 408.383 56.8233Z" fill="#FFCD00"/>
<path fill-rule="evenodd" clip-rule="evenodd" d="M371.732 118.872C371.814 119.34 372.653 119.595 373.597 119.428C374.537 119.262 375.241 118.736 375.159 118.268C375.076 117.798 374.235 117.546 373.294 117.712C372.351 117.879 371.649 118.402 371.732 118.872Z" fill="#FFCD00"/>
<path fill-rule="evenodd" clip-rule="evenodd" d="M344.79 118.627C344.113 119.034 343.63 119.767 343.715 120.25C343.908 121.343 344.797 121.203 346.268 119.861C347.656 118.604 346.477 117.615 344.79 118.627Z" fill="#FFCD00"/>
<mask id="mask0_1_119" style="mask-type:luminance" maskUnits="userSpaceOnUse" x="0" y="0" width="516" height="201">
<path fill-rule="evenodd" clip-rule="evenodd" d="M0 88.1082L495.713 0.700636L515.595 113.457L19.8819 200.864L0 88.1082Z" fill="white"/>
</mask>
<g mask="url(#mask0_1_119)">
<path fill-rule="evenodd" clip-rule="evenodd" d="M257.293 133.751C255.476 134.071 254.519 134.6 254.924 135.053C255.299 135.472 256.74 135.618 258.125 135.374C259.51 135.129 260.577 134.542 260.494 134.071C260.411 133.601 258.97 133.455 257.293 133.751Z" fill="#FFCD00"/>
<path fill-rule="evenodd" clip-rule="evenodd" d="M447.618 102.561C447.041 102.918 446.296 103.018 445.962 102.786C445.627 102.547 446.099 102.258 447.006 102.133C448.015 102.003 448.252 102.169 447.618 102.561ZM438.888 103.5C438.418 103.583 437.727 103.305 437.354 102.886C436.979 102.467 437.056 102.054 437.526 101.971C437.999 101.888 438.693 102.165 439.068 102.584C439.44 103.003 439.361 103.417 438.888 103.5ZM403.002 104.525C400.864 104.902 399.494 103.782 400.736 102.676C401.206 102.263 402.321 102.431 403.214 103.057C404.72 104.113 404.702 104.226 403.002 104.525ZM388.943 87.5142C386.628 87.9837 385.913 87.694 387.042 86.7515C387.358 86.4854 388.442 86.4407 389.453 86.6543C391.055 86.99 390.989 87.1002 388.943 87.5142ZM381.708 89.0512C378.19 89.9993 372.691 90.0203 374.869 89.0766C376.753 88.2594 385.518 86.9057 385.608 87.4122C385.665 87.7219 383.908 88.458 381.708 89.0512ZM332.416 122.242C329.739 122.733 327.244 122.787 326.869 122.368C326.494 121.949 326.497 121.527 326.872 121.432C327.246 121.334 328.933 120.866 330.611 120.381C332.415 119.863 334.414 119.883 335.478 120.431C337.103 121.261 336.792 121.447 332.416 122.242ZM298.359 116.872C297.67 117.857 291.21 119.108 271.618 122.053C269.487 122.373 266.9 122.333 265.864 121.97C264.828 121.598 260.692 121.808 256.671 122.426C247.013 123.916 245.233 124.07 243.918 123.516C243.311 123.263 242.242 123.398 241.542 123.812C240.707 124.319 240.19 124.109 240.03 123.199C239.896 122.442 239.209 121.927 238.503 122.051C237.797 122.175 237.139 121.844 237.046 121.314C236.927 120.642 238.164 120.312 241.053 120.237C245.075 120.135 253.055 118.758 262.559 116.53C265.428 115.859 268.162 115.78 269.995 116.322C271.589 116.795 276.025 116.807 279.848 116.346C283.674 115.89 287.314 115.797 287.944 116.137C289.096 116.765 291.926 116.762 296.581 116.127C298.412 115.874 298.911 116.084 298.359 116.872ZM215.996 89.4645C214.407 91.1223 210.191 92.1456 209.26 91.0973C208.927 90.7242 205.882 90.8641 202.493 91.411C199.103 91.9528 196.126 92.2539 195.877 92.0767C195.366 91.7191 199.619 89.6208 200.981 89.5592C201.462 89.5357 205.357 89.1713 209.64 88.7493C216.574 88.0702 217.261 88.1462 215.996 89.4645ZM154.139 100.601C150.718 101.18 147.86 101.308 147.784 100.877C147.709 100.45 148.533 99.9423 149.616 99.7514C150.699 99.5605 151.896 98.9577 152.275 98.4192C153.289 96.9721 167.662 93.4197 167.864 94.5672C168.147 96.1721 160.562 99.5054 154.139 100.601ZM144.623 97.9727C143.682 98.8289 143.722 99.2828 144.851 100.547C146.546 102.441 145.634 102.905 135.533 105.267C131.681 106.165 128.506 106.749 128.473 106.56C128.368 105.968 133.406 102.845 137.452 100.991C139.596 100.005 141.497 98.8304 141.676 98.383C141.857 97.9274 142.849 97.4168 143.884 97.2423C145.403 96.9851 145.543 97.1283 144.623 97.9727ZM209.198 68.9592C210.316 68.7834 210.308 68.9634 209.154 69.9316C208.382 70.5848 207.559 70.9829 207.322 70.8169C206.61 70.3162 207.75 69.1906 209.198 68.9592ZM212.915 67.3949C213.718 67.2531 213.951 66.3993 213.584 64.9345C213.126 63.1073 213.475 62.4754 215.464 61.5145C218.659 59.9839 220.432 60.356 220.254 62.5352C220.152 63.7818 220.618 64.2511 221.925 64.2125C222.925 64.1855 223.96 64.5705 224.226 65.0672C224.866 66.2602 222.02 67.5295 216.481 68.5194C214.007 68.9663 211.919 68.9427 211.836 68.4698C211.753 67.9994 212.235 67.5147 212.915 67.3949ZM239.456 67.3543C241.339 67.0303 242.042 67.0901 241.014 67.482C239.985 67.8739 238.441 68.1382 237.584 68.0682C236.726 67.9981 237.571 67.6787 239.456 67.3543ZM250.124 66.5126L256.062 66.3797L251.717 67.9478C248.51 69.1022 246.984 69.2861 245.885 68.6617C243.177 67.1193 244.116 66.6393 250.124 66.5126ZM260.901 65.1876C263.238 64.7355 266.088 63.4576 267.678 62.1513C270.732 59.657 273.315 58.8924 274.441 60.1567C274.89 60.6612 276.299 60.5673 277.986 59.934C280.822 58.8663 281.679 59.4213 280.279 61.4243C279.728 62.2117 279.82 62.6405 280.608 62.9546C281.268 63.2219 281.765 62.6439 281.858 61.5083C281.982 60.0022 282.678 59.5064 285.337 59.0375C289.053 58.3822 289.848 59.412 287.207 61.4659C286.245 62.2083 285.292 63.2105 285.085 63.684C284.88 64.1678 283.202 64.8074 281.361 65.1108C279.52 65.4141 274.443 66.272 270.084 67.014C265.721 67.7539 262.092 68.0261 262.019 67.6126C261.946 67.1991 260.758 66.6571 259.382 66.412C257.066 66.0023 257.183 65.9072 260.901 65.1876ZM290.825 58.667C292.863 57.4415 298.063 56.6606 298.221 57.5573C298.295 57.976 297.061 58.7025 295.48 59.1786L295.485 59.1776C293.908 59.6502 291.896 59.9198 291.02 59.7731C289.498 59.5272 289.488 59.4729 290.825 58.667ZM302.506 63.0401C305.414 61.5787 306.478 61.4496 310.026 62.1351C316.047 63.2905 316.133 64.2053 310.324 65.2297C307.522 65.7237 303.858 65.8128 302.177 65.4351L299.118 64.7407L302.506 63.0401ZM514.599 112.417C513.882 112.298 512.295 111.443 511.07 110.511C509.846 109.586 508.307 108.895 507.65 108.979C506.992 109.069 504.556 108.52 502.237 107.764C499.916 107.007 496.873 106.133 495.475 105.823C494.073 105.513 492.952 104.778 492.978 104.19C493.006 103.604 491.337 102.092 489.269 100.834C484.899 98.1773 485.202 96.1786 489.729 97.8054C491.914 98.5926 493.016 98.5714 493.947 97.7279C495.841 96.0188 494.681 95.1789 490.879 95.5028C489.005 95.6653 486.837 95.4294 486.061 94.9854C484.018 93.8159 482.54 93.8635 474.453 95.3161C470.462 96.0356 466.749 96.3919 466.203 96.1045C465.654 95.8176 462.692 95.9774 459.62 96.4605C456.427 96.9569 452.512 96.9518 450.485 96.4432C447.248 95.6309 447.049 95.4261 448.254 94.1744C450.431 91.9066 448.5 91.7301 443.798 93.777C437.29 96.6006 430.584 96.003 429.81 92.5182C429.735 92.1716 433.604 91.2922 438.41 90.562C444.38 89.6586 447.2 88.9056 447.309 88.1935C447.397 87.621 446.977 87.2954 446.377 87.4572C442.819 88.4522 432.957 88.3019 431.85 87.2393C430.773 86.2062 430.427 86.2405 429.377 87.4782C427.93 89.1857 414.522 92.1681 411.571 91.4412C409.976 91.051 410.136 90.9296 412.476 90.77C414.035 90.663 415.255 90.2508 415.187 89.8657C415.118 89.478 416.637 88.0538 418.556 86.7C422.792 83.7148 424.24 81.6022 422.306 81.2291C421.58 81.0879 420 81.5583 418.8 82.2789C415.814 84.0551 410.133 84.9636 409.485 83.7668C409.138 83.1246 406.84 83.1487 402.807 83.8411C399.424 84.4191 396.61 84.6461 396.557 84.3463C396.411 83.5646 391.632 83.6185 381.556 84.5078C376.736 84.9314 372.178 84.9276 371.432 84.5023C370.685 84.0718 367.893 83.8818 365.235 84.0707C362.577 84.2622 360.536 84.0812 360.703 83.6654C361.269 82.2359 358.764 82.0273 351.911 82.9213C348.132 83.4171 344.696 83.6845 344.277 83.5132C343.853 83.3481 338.139 83.9134 331.568 84.7763C316.673 86.7311 312.649 86.809 312.359 85.1602C312.194 84.2298 313.2 83.7035 316.182 83.1617C321.435 82.2007 323.528 79.7559 318.538 80.4012C306.357 81.9815 305.123 82.271 305.782 83.3645C306.273 84.184 305.621 84.5788 303.238 84.9218C300.049 85.3801 293.859 85.2164 295.554 84.7177C296.043 84.5755 297.089 83.7542 297.882 82.8976C299.184 81.4875 298.543 81.4806 291.195 82.8163C286.724 83.634 282.458 84.2422 281.718 84.1702C275.81 83.6104 273.588 83.9169 272.837 85.4003C272.159 86.7351 270.984 87.0249 264.206 87.5139C259.889 87.8327 253.976 88.1026 251.064 88.123C248.154 88.1378 241.712 88.7941 236.749 89.5759C227.901 90.9735 224.136 90.7021 220.91 88.4435C218.989 87.1008 220.227 86.4562 226.416 85.5754C232.167 84.7612 236.789 82.4834 237.221 80.2488C237.569 78.4606 233.685 79.2227 232.286 81.2201C231.431 82.4474 230.01 82.8473 225.29 83.2053C222.034 83.4515 217.448 84.0391 215.107 84.5158C211.383 85.2656 211.005 85.1937 212.138 83.9707C212.851 83.1921 213.399 82.3573 213.355 82.1092C213.312 81.8637 210.045 82.4397 206.093 83.3897C199.296 85.0253 198.804 85.0294 196.824 83.3801C194.942 81.8199 194.645 81.8029 193.898 83.1978C193.249 84.418 191.669 84.9605 186.613 85.6974C177.228 87.0565 173.334 86.8558 173.483 85.0095C173.581 83.801 173.005 83.6308 170.528 84.1342C168.837 84.475 167.107 85.0491 166.689 85.4106C166.268 85.7727 164.755 86.5484 163.325 87.1283C160.45 88.2934 158.425 87.2062 161.146 85.9562C163.441 84.9014 162.226 83.7539 158.729 83.6724C156.996 83.6343 156.147 83.2484 156.554 82.6863C156.926 82.165 158.838 81.7799 160.928 81.8004C163.274 81.8211 164.912 81.4416 165.383 80.7698C165.907 80.0245 167.009 79.8541 169.086 80.2074C172.464 80.7762 187.2 78.4017 195.92 75.881C201.655 74.2247 205.437 74.2268 207.183 75.8935C207.693 76.3818 208.186 76.1537 208.562 75.2666C209.072 74.0468 210.648 73.7956 221.104 73.2229C233.238 72.565 235.082 72.7302 233.298 74.3213C232.575 74.9683 232.877 75.2589 234.394 75.3857C235.543 75.4789 236.547 75.158 236.625 74.6671C236.701 74.1741 237.145 73.9279 237.616 74.1168C239.486 74.8582 256.798 72.0988 257.826 70.8863C258.635 69.9308 258.903 69.9663 259.096 71.0647C259.231 71.8296 259.675 72.3963 260.086 72.3238C260.494 72.2518 264.328 72.1861 268.601 72.1813C272.876 72.171 279.334 71.5732 282.954 70.855C286.575 70.1419 289.905 69.6961 290.353 69.8649C290.804 70.0358 298.048 69.8617 306.457 69.4769C318.016 68.9443 322.285 68.4473 323.982 67.4447C325.636 66.4601 326.271 66.3748 326.4 67.1062C326.825 69.4695 346.37 68.6027 348.092 66.1432C348.816 65.1096 346.783 64.101 344.705 64.4674C343.472 64.6847 341.215 64.7124 339.693 64.5304C330.692 63.4448 328.31 63.4171 322.855 64.3631C317.417 65.3059 316.768 65.2391 316.257 63.6825C315.369 60.9744 319.036 58.8488 322.717 59.9399C325.298 60.7052 325.755 60.6194 327.435 59.0414C328.596 57.9493 330.235 57.3139 331.813 57.35C333.197 57.3832 334.486 57.0173 334.679 56.5383C335.18 55.2854 332.361 54.6047 327.311 54.757C324.894 54.8314 322.561 54.7498 322.126 54.5813C320.496 53.936 313.31 55.2059 311.477 56.467C309.906 57.5461 309.375 57.5411 308.491 56.4579C307.731 55.5314 306.821 55.404 305.411 56.0338C304.188 56.5824 303.343 56.561 303.24 55.9795C303.148 55.46 301.801 55.2552 300.245 55.5296C298.692 55.8034 296.98 55.719 296.442 55.3448C295.904 54.968 290.812 55.2691 285.123 56.011C279.437 56.7577 272.402 57.3933 269.495 57.4236C262.045 57.5034 257.486 58.4431 255.809 60.2472C253.631 62.5871 249.669 63.0566 248.76 61.0745C248.013 59.4553 246.013 59.1579 245.444 60.5853C245.281 60.9949 244.049 61.4707 242.707 61.646C241.366 61.8212 238.814 62.1593 237.036 62.3956C234.871 62.6894 233.729 62.427 233.585 61.6103C233.414 60.6386 232.356 60.6546 228.519 61.6855L223.673 62.9878L225.429 60.9672C227.249 58.8663 226.593 56.7303 224.517 57.9811C223.866 58.3729 222.664 58.3105 221.849 57.8439C221.035 57.3852 220.186 57.2525 219.971 57.5621C219.754 57.8722 218.298 57.8333 216.735 57.4825C214.823 57.0496 213.093 57.2267 211.434 58.0362C209.771 58.8517 208.719 58.9573 208.197 58.3724C207.669 57.7807 206.431 57.9192 204.258 58.8219C202.518 59.5445 196.567 60.9615 191.038 61.9656C181.13 63.774 180.978 63.7716 180.639 61.8488C180.238 59.5745 178.072 59.5966 177.274 61.8825C176.584 63.8642 174.376 63.0569 174.553 60.886C174.706 59.0017 173.51 58.8261 165.218 59.5209C158.272 60.1008 138.795 63.4392 133.071 65.0267C130.758 65.6744 125.441 67.0808 121.261 68.1589C116.716 69.3281 113.183 70.7026 112.48 71.5699C111.699 72.5338 108.359 73.6795 102.522 74.9833C97.6936 76.0585 93.4296 77.386 93.04 77.9423C92.6573 78.4921 90.8765 79.1978 89.0881 79.5132C86.7647 79.9229 85.8973 80.4595 86.0591 81.377C86.287 82.6692 85.4695 83.1411 82.6545 83.347C81.8151 83.4071 81.2134 83.9395 81.3178 84.5313C81.4263 85.1464 80.8978 85.0211 80.0828 84.2375C78.7232 82.9343 78.3497 82.9922 71.7012 85.5315C67.8712 86.9929 64.1511 88.2165 63.4305 88.2556C61.5848 88.3519 56.3494 90.4875 50.7308 93.4421C48.1011 94.8198 44.9329 96.1352 43.6924 96.354C42.4518 96.5727 41.0547 97.2934 40.5911 97.9587C40.1223 98.625 39.6874 98.8482 39.619 98.4606C39.5511 98.0755 38.9377 98.4048 38.2525 99.1892C37.4087 100.161 37.1566 100.243 37.4644 99.4347C37.7833 98.6137 37.2551 98.3684 35.7277 98.6377C34.4174 98.8688 33.6214 99.5074 33.7476 100.223C34.0871 102.149 29.8067 104.124 27.6248 103.054C24.8061 101.667 23.5185 102.299 23.9687 104.852L24.3748 107.155L22.2973 105.589C19.5812 103.545 17.9921 103.902 16.7276 106.856C16.1584 108.177 14.8188 109.647 13.7494 110.126C11.5264 111.12 11.5139 112.772 13.7149 114.313C14.5458 114.9 15.3263 115.956 15.4507 116.661C15.5755 117.37 16.5239 118.063 17.5529 118.201C18.5875 118.341 19.2898 118.652 19.1183 118.903C18.7112 119.481 13.9686 118.26 13.8423 117.545C13.7471 117.004 8.36328 118.268 6.42018 119.293C5.25881 119.9 5.44852 122.185 6.70048 122.681C7.16518 122.868 7.99718 124.035 8.55507 125.28C9.10688 126.52 10.6633 128.562 12.0129 129.808C13.3625 131.054 14.7605 132.953 15.1179 134.028C15.7493 135.931 16.9542 136.659 20.1528 137.057C21.3636 137.214 21.8966 138.196 22.4435 141.298C23.3458 146.415 27.4186 155.7 29.4913 157.36C30.3603 158.057 32.1953 158.429 33.565 158.187C36.5009 157.669 39.6106 158.531 39.8563 159.924C39.9515 160.464 39.3795 161.905 38.5811 163.12L37.1312 165.339L39.7455 168.484C41.1889 170.217 42.9449 171.546 43.6567 171.442C45.8867 171.108 48.6091 172.991 48.2907 174.646C47.8927 176.696 49.8938 178.267 52.3464 177.835C53.4396 177.642 54.6208 177.812 54.9787 178.21C55.6799 178.998 60.3995 177.761 64.2854 175.77C65.6251 175.086 68.8946 173.936 71.5558 173.206C76.4591 171.862 79.2222 169.941 82.2884 165.75C83.2247 164.471 84.417 163.344 84.939 163.252C85.4658 163.156 86.9411 162.259 88.2222 161.258C89.6501 160.137 93.3421 158.815 97.7742 157.836C101.749 156.957 107.819 155.335 111.268 154.236C114.717 153.138 123.939 150.491 131.76 148.355C145.054 144.727 146.099 144.551 147.846 145.644C149.545 146.714 150.804 146.538 162.049 143.651C168.832 141.906 174.766 140.061 175.23 139.547C176.719 137.899 180.044 136.82 181.347 137.563C182.079 137.977 183.931 137.813 185.739 137.172C187.46 136.562 191.455 135.234 194.614 134.229C197.769 133.22 200.517 132.163 200.717 131.877C200.917 131.591 201.995 132.176 203.113 133.178C205.384 135.208 209.131 135.011 211.81 132.721C213.106 131.608 213.548 131.53 214.012 132.333C214.327 132.883 215.133 133.239 215.8 133.121C216.467 133.004 216.831 132.441 216.609 131.875C216.309 131.097 218.153 130.537 223.94 129.626C231.47 128.442 233.884 128.259 244.851 128.012C259.565 127.688 262.985 127.346 264.936 126.005C266.496 124.925 267.099 124.87 267.853 125.715C268.648 126.609 269.115 126.537 270.701 125.287C271.776 124.448 273.457 123.914 274.579 124.068C276.399 124.307 276.453 124.436 275.287 125.651C274.189 126.796 274.736 126.998 279.236 127.097C282.104 127.164 290.172 126.992 297.167 126.72C304.164 126.446 312.455 126.164 315.601 126.1C318.746 126.028 327.013 125.591 333.975 125.12C340.935 124.647 347.231 124.357 347.961 124.476C348.695 124.589 352.265 124.554 355.894 124.386C359.524 124.225 365.453 123.966 369.069 123.816C372.684 123.669 378.793 123.362 382.635 123.132C389.196 122.74 395.036 122.616 405.514 122.658C407.944 122.672 412.856 122.363 416.429 121.967C425.436 120.987 421.266 120.4 406.923 120.635C400.628 120.735 389.723 120.867 382.688 120.927C371.552 121.017 344.38 121.926 342.419 122.272C342.036 122.339 341.121 121.515 340.382 120.441C339.235 118.772 339.263 118.309 340.577 117.283C341.421 116.615 343.256 115.79 344.649 115.441C346.311 115.028 346.975 114.458 346.575 113.787C345.787 112.477 355.034 111.376 358.187 112.406C359.623 112.878 364.912 112.313 374.154 110.702C381.752 109.373 388.731 108.531 389.665 108.822C390.598 109.113 393.194 109.191 395.434 108.988C400.732 108.523 409.213 108.52 418.118 108.985C422.043 109.194 427.083 109.211 429.321 109.027C431.556 108.844 433.793 108.854 434.296 109.061C434.8 109.258 439.114 109.334 443.885 109.22C453.923 108.99 459.104 109.102 464.152 109.649C468.16 110.088 474.102 110.284 478.878 110.138C480.603 110.084 482.931 110.636 484.047 111.356C485.327 112.193 487.308 112.457 489.407 112.076C494.457 111.17 498.577 111.189 502.603 112.123C508.415 113.481 514.959 114.096 515.449 113.339C515.697 112.951 515.316 112.541 514.599 112.417Z" fill="#FFCD00"/>
</g>
<path fill-rule="evenodd" clip-rule="evenodd" d="M432.264 121.611C431.481 121.296 429.252 121.06 427.315 121.09C424.996 121.118 424.282 121.331 425.216 121.702C425.999 122.017 428.227 122.256 430.167 122.226C432.485 122.195 433.201 121.981 432.264 121.611Z" fill="#FFCD00"/>
<path fill-rule="evenodd" clip-rule="evenodd" d="M489.565 89.7842C486.523 90.8055 486.117 91.1782 487.225 91.9289C487.966 92.4272 490.312 92.661 492.446 92.4447C495.471 92.1298 496.328 91.7335 496.358 90.6037C496.41 88.6172 493.936 88.3233 489.565 89.7842Z" fill="#FFCD00"/>
<path fill-rule="evenodd" clip-rule="evenodd" d="M462.152 123.826C460.28 123.957 459.549 124.101 460.53 124.152C461.509 124.203 462.742 124.532 463.265 124.882C463.79 125.232 465.198 125.344 466.397 125.111C469.662 124.495 466.455 123.523 462.152 123.826Z" fill="#FFCD00"/>
<path fill-rule="evenodd" clip-rule="evenodd" d="M504.303 103.094C504.64 103.328 505.379 103.227 505.956 102.872C506.592 102.477 506.352 102.306 505.348 102.446C504.439 102.566 503.968 102.857 504.303 103.094Z" fill="#FFCD00"/>
<path fill-rule="evenodd" clip-rule="evenodd" d="M479.698 124.306C476.341 124.477 476.111 124.594 477.686 125.407C478.658 125.901 480.789 126.093 482.416 125.82C486.426 125.15 484.479 124.068 479.698 124.306Z" fill="#FFCD00"/>
<path fill-rule="evenodd" clip-rule="evenodd" d="M488.861 117.648C488.447 117.721 488.244 118.549 488.41 119.492C488.701 121.138 490.494 121.517 491.461 120.14C491.996 119.379 489.982 117.451 488.861 117.648Z" fill="#FFCD00"/>
<path fill-rule="evenodd" clip-rule="evenodd" d="M471.457 116.304C470.307 116.507 469.433 117.05 469.514 117.51C469.682 118.459 474.009 118.975 474.61 118.12C475.38 117.017 473.509 115.943 471.457 116.304Z" fill="#FFCD00"/>
<path fill-rule="evenodd" clip-rule="evenodd" d="M447.89 122.317C445.674 122.294 443.914 122.57 443.978 122.932C444.14 123.852 445.95 124.1 450.875 123.877C456.301 123.634 453.9 122.382 447.89 122.317Z" fill="#FFCD00"/>
<path fill-rule="evenodd" clip-rule="evenodd" d="M442.126 122.438C441.348 122.165 439.797 121.818 438.681 121.686C437.564 121.545 436.714 121.804 436.793 122.249C436.94 123.086 439.982 123.608 442.256 123.175C443.394 122.963 443.379 122.878 442.126 122.438Z" fill="#FFCD00"/>
<path fill-rule="evenodd" clip-rule="evenodd" d="M509.465 98.5464C508.507 99.4027 509.746 101.337 511.468 101.671C513.011 101.977 514.314 101.11 514.105 99.9292C513.913 98.8385 510.328 97.7759 509.465 98.5464Z" fill="#FFCD00"/>
</svg>
